<svg xmlns="http://www.w3.org/2000/svg" viewBox="0 0 512 512">
  <defs>
    <linearGradient id="bg" x1="0%" y1="0%" x2="100%" y2="100%">
      <stop offset="0%" stop-color="#dd3232"/>
      <stop offset="100%" stop-color="#b01e1e"/>
    </linearGradient>
  </defs>
  <rect width="512" height="512" rx="96" fill="url(#bg)"/>
  <!-- Stylized S path - clean geometric lettermark -->
  <path d="M310 148c-16-12-40-20-66-20-44 0-72 22-72 56 0 34 26 46 64 56l18 5c32 8 52 18 52 42 0 28-24 44-58 44-28 0-50-10-66-28l-30 32c22 24 54 38 94 38 52 0 84-28 84-66 0-38-28-52-68-62l-18-5c-28-7-46-14-46-36 0-22 18-36 46-36 22 0 40 8 54 20l28-30z" fill="none" stroke="white" stroke-width="24" stroke-linecap="round" stroke-linejoin="round"/>
</svg>
